<svg width="156" height="140" viewBox="0 0 156 140" fill="none" xmlns="http://www.w3.org/2000/svg">
<path d="M10.9556 115.38C11.7709 115.539 12.4408 115.921 12.9658 116.528C13.4902 117.135 13.8135 117.937 13.936 118.932C14.1083 120.342 13.7771 121.505 12.9419 122.422C12.1076 123.34 10.8012 123.951 9.02305 124.255L1.97435 125.459L0 109.366L6.65821 108.23C8.31977 107.945 9.64115 108.102 10.6228 108.701C11.604 109.3 12.1738 110.243 12.3322 111.53C12.4279 112.313 12.3541 113.038 12.1111 113.706C11.869 114.373 11.484 114.931 10.9556 115.38ZM3.47852 111.638L3.94273 115.43L7.07858 114.894C7.85656 114.761 8.42735 114.498 8.78995 114.108C9.15354 113.716 9.29698 113.207 9.22028 112.582C9.14308 111.953 8.88408 111.516 8.44329 111.271C8.002 111.026 7.39236 110.969 6.61438 111.102L3.47852 111.638ZM8.44329 121.489C9.27308 121.348 9.87973 121.081 10.2622 120.687C10.6458 120.293 10.7967 119.759 10.7145 119.085C10.5511 117.753 9.63169 117.229 7.95718 117.514L4.27743 118.144L4.76355 122.119L8.44329 121.489Z" fill="#0B1D51"/>
<path d="M25.3446 118.332L18.9912 119.185L18.1146 122.808L14.8691 123.245L19.4076 106.27L22.5374 105.849L30.2157 121.18L26.8906 121.627L25.3446 118.332ZM24.0755 115.624L21.3082 109.73L19.7343 116.208L24.0755 115.624Z" fill="#0B1D51"/>
<path d="M42.8888 103.633L44.0204 119.839L41.4125 120.093L33.8817 110.922L34.569 120.761L31.4312 121.066L30.2996 104.861L32.9274 104.604L40.4383 113.777L39.7509 103.939L42.8888 103.633Z" fill="#0B1D51"/>
<path d="M51.7996 112.926L50.0524 115.311L50.2317 119.418L47.0679 119.611L46.3567 103.372L49.5204 103.179L49.8531 110.765L55.6108 102.808L59.1471 102.591L53.766 110.177L60.1931 118.809L56.4795 119.035L51.7996 112.926Z" fill="#0B1D51"/>
<path d="M71.4378 118.825C70.3485 118.842 69.2941 118.685 68.274 118.353C67.254 118.019 66.4322 117.578 65.8096 117.031L66.8595 114.18C67.4542 114.682 68.1605 115.082 68.9773 115.38C69.7951 115.676 70.611 115.818 71.4238 115.805C72.3293 115.791 72.9962 115.623 73.4241 115.3C73.8529 114.975 74.0646 114.549 74.0596 114.022C74.0556 113.636 73.9241 113.316 73.6651 113.065C73.4061 112.813 73.0759 112.613 72.675 112.465C72.2735 112.317 71.7306 112.154 71.0453 111.976C69.9934 111.699 69.1312 111.418 68.4593 111.134C67.7869 110.851 67.2082 110.388 66.722 109.746C66.2359 109.104 65.9869 108.24 65.9749 107.154C65.964 106.213 66.1707 105.355 66.5945 104.581C67.0194 103.807 67.6649 103.188 68.531 102.726C69.3982 102.263 70.4615 102.022 71.7207 102.001C72.5998 101.987 73.4604 102.098 74.3027 102.333C75.1459 102.568 75.8835 102.914 76.5161 103.37L75.5658 106.237C74.2837 105.408 73.0067 105.002 71.7346 105.021C70.8431 105.035 70.1866 105.216 69.7643 105.565C69.3419 105.911 69.1337 106.363 69.1407 106.919C69.1456 107.478 69.3962 107.888 69.8918 108.152C70.3868 108.414 71.1409 108.669 72.153 108.916C73.2059 109.194 74.0686 109.475 74.741 109.758C75.4129 110.042 75.9911 110.498 76.4763 111.127C76.9609 111.754 77.2094 112.61 77.2214 113.693C77.2318 114.623 77.0221 115.475 76.5918 116.247C76.1625 117.021 75.511 117.639 74.6374 118.103C73.7633 118.566 72.6969 118.806 71.4378 118.825Z" fill="#0B1D51"/>
<path d="M88.3812 115.128L81.988 115.018L80.7249 118.48L77.4575 118.423L83.797 102.272L86.9448 102.326L92.9017 118.689L89.5567 118.633L88.3812 115.128ZM87.411 112.252L85.3071 105.991L83.0439 112.176L87.411 112.252Z" fill="#0B1D51"/>
<path d="M106.621 119.454L107.004 109.709L102.623 117.504L101.188 117.422L97.4827 109.371L97.0882 118.906L94.1018 118.734L94.7732 102.493L97.405 102.644L102.137 113.033L107.625 103.232L110.239 103.382L109.608 119.626L106.621 119.454Z" fill="#0B1D51"/>
<path d="M119.703 104.276C120.919 104.394 121.958 104.736 122.821 105.302C123.682 105.866 124.324 106.612 124.745 107.538C125.168 108.465 125.337 109.531 125.253 110.735C125.171 111.924 124.857 112.938 124.311 113.778C123.766 114.618 123.03 115.229 122.101 115.613C121.173 115.998 120.1 116.13 118.884 116.013L116.121 115.742L115.81 120.211L112.632 119.903L113.762 103.698L119.703 104.276ZM118.92 112.939C119.875 113.032 120.617 112.859 121.147 112.421C121.678 111.984 121.975 111.318 122.038 110.422C122.101 109.513 121.901 108.791 121.438 108.256C120.976 107.72 120.267 107.406 119.312 107.313L116.726 107.061L116.334 112.687L118.92 112.939Z" fill="#0B1D51"/>
<path d="M136.12 119.058L129.764 118.216L128.224 121.518L124.979 121.088L132.613 105.738L135.743 106.152L140.328 123.122L137.004 122.682L136.12 119.058ZM135.395 116.087L133.811 109.612L131.051 115.511L135.395 116.087Z" fill="#0B1D51"/>
<path d="M156 109.362L154.038 125.455L150.882 124.919L151.687 118.321L145.495 117.27L144.69 123.867L141.536 123.331L143.499 107.239L146.652 107.775L145.877 114.121L152.069 115.172L152.844 108.826L156 109.362Z" fill="#0B1D51"/>
<path d="M13.7705 133.203C14.3214 133.31 14.7736 133.568 15.1273 133.979C15.4804 134.388 15.6981 134.928 15.7807 135.599C15.8973 136.551 15.6736 137.337 15.1093 137.956C14.546 138.574 13.6649 138.985 12.4656 139.189L7.70601 140L6.37915 129.141L10.8757 128.374C11.9964 128.183 12.8879 128.289 13.5494 128.694C14.2118 129.098 14.5963 129.735 14.7029 130.604C14.7667 131.13 14.7159 131.62 14.5515 132.071C14.3881 132.522 14.1276 132.899 13.7705 133.203ZM8.72606 130.674L9.03885 133.231L11.1547 132.869C11.6806 132.779 12.0656 132.603 12.3102 132.339C12.5557 132.076 12.6528 131.733 12.601 131.309C12.5492 130.886 12.3744 130.592 12.0771 130.427C11.7792 130.261 11.3678 130.223 10.8419 130.312L8.72606 130.674ZM12.0751 137.323C12.6369 137.228 13.0463 137.048 13.3043 136.782C13.5633 136.516 13.6649 136.156 13.6091 135.7C13.4986 134.801 12.878 134.447 11.7464 134.64L9.26198 135.063L9.59071 137.747L12.0751 137.323Z" fill="#0B1D51"/>
<path d="M23.7189 135.09L19.4355 135.704L18.8577 138.157L16.6702 138.47L19.6626 126.99L21.7724 126.686L27.0181 136.986L24.7768 137.308L23.7189 135.09ZM22.8522 133.272L20.9576 129.311L19.9256 133.691L22.8522 133.272Z" fill="#0B1D51"/>
<path d="M35.678 124.956L36.5845 135.876L34.8273 136.081L29.6653 129.985L30.2152 136.615L28.0994 136.86L27.1929 125.939L28.964 125.735L34.1141 131.831L33.5642 125.201L35.678 124.956Z" fill="#0B1D51"/>
<path d="M38.207 124.699L42.4207 124.332C43.4258 124.245 44.3293 124.393 45.1302 124.779C45.9311 125.164 46.5711 125.748 47.0508 126.534C47.5299 127.319 47.8044 128.259 47.8736 129.354C47.9423 130.449 47.7884 131.427 47.4114 132.289C47.0338 133.15 46.4735 133.841 45.7299 134.361C44.9858 134.882 44.1112 135.186 43.1061 135.274L38.8924 135.641L38.207 124.699ZM42.869 133.204C43.7959 133.123 44.5156 132.754 45.0286 132.096C45.5426 131.439 45.7667 130.589 45.702 129.544C45.6367 128.503 45.3085 127.702 44.7178 127.14C44.1281 126.578 43.3695 126.337 42.4426 126.418L40.4842 126.59L40.9106 133.376L42.869 133.204Z" fill="#0B1D51"/>
<path d="M55.9642 131.999L51.6549 132.256L50.9317 134.655L48.7302 134.787L52.398 123.582L54.5218 123.457L59.1399 134.166L56.8866 134.3L55.9642 131.999ZM55.2051 130.113L53.5535 126.009L52.2605 130.29L55.2051 130.113Z" fill="#0B1D51"/>
<path d="M66.1538 133.936L64.287 130.942L64.1814 130.944L62.3087 131.008L62.3824 134.063L60.2327 134.134L59.9697 123.166L63.9921 123.032C64.8155 123.006 65.5342 123.145 66.1478 123.449C66.7614 123.751 67.2386 124.195 67.5802 124.78C67.9214 125.363 68.1022 126.062 68.1221 126.875C68.1406 127.691 67.9912 128.4 67.6739 129.002C67.3561 129.603 66.8959 130.07 66.2932 130.404L68.4608 133.859L66.1538 133.936ZM65.9466 126.948C65.9316 126.332 65.7518 125.866 65.4067 125.549C65.0625 125.231 64.5679 125.083 63.9224 125.104L62.1692 125.163L62.2609 128.988L64.0141 128.929C64.6596 128.907 65.1462 128.724 65.4744 128.378C65.8036 128.032 65.961 127.555 65.9466 126.948Z" fill="#0B1D51"/>
<path d="M77.4503 129.479L76.1971 131.013L76.1931 133.788L74.0554 133.783L74.0734 122.811L76.2111 122.816L76.2031 127.941L80.3271 122.825L82.7179 122.832L78.8588 127.713L82.9251 133.805L80.4168 133.797L77.4503 129.479Z" fill="#0B1D51"/>
<path d="M92.7516 123.11L92.5225 134.08L90.3728 134.018L90.4664 129.521L86.2448 129.397L86.1511 133.894L84.0015 133.833L84.2306 122.863L86.3802 122.924L86.2906 127.249L90.5122 127.374L90.6019 123.049L92.7516 123.11Z" fill="#0B1D51"/>
<path d="M101.055 132.179L96.7432 131.936L95.8248 134.239L93.6233 134.114L98.2055 123.387L100.327 123.507L104.035 134.702L101.78 134.575L101.055 132.179ZM100.455 130.215L99.1519 125.936L97.5102 130.048L100.455 130.215Z" fill="#0B1D51"/>
<path d="M105.765 123.86L107.91 124.032L107.398 132.913L112.048 133.287L111.929 135.352L105.133 134.807L105.765 123.86Z" fill="#0B1D51"/>
<path d="M114.053 124.561L116.199 124.77L115.438 135.705L113.292 135.496L114.053 124.561Z" fill="#0B1D51"/>
<path d="M122.697 125.472C123.516 125.566 124.214 125.809 124.789 126.201C125.365 126.593 125.792 127.105 126.068 127.737C126.346 128.367 126.451 129.087 126.385 129.896C126.318 130.699 126.097 131.38 125.721 131.94C125.345 132.499 124.843 132.903 124.213 133.151C123.584 133.399 122.859 133.476 122.04 133.382L120.175 133.165L119.926 136.176L117.784 135.929L118.691 125.008L122.697 125.472ZM122.091 131.307C122.734 131.381 123.236 131.273 123.598 130.985C123.96 130.697 124.166 130.25 124.217 129.646C124.268 129.034 124.139 128.543 123.831 128.176C123.524 127.81 123.049 127.59 122.406 127.516L120.661 127.313L120.346 131.105L122.091 131.307Z" fill="#0B1D51"/>
<path d="M133.894 135.616L129.61 135.007L128.555 137.227L126.365 136.916L131.589 126.605L133.699 126.904L136.715 138.384L134.474 138.067L133.894 135.616ZM133.416 133.605L132.378 129.228L130.489 133.191L133.416 133.605Z" fill="#0B1D51"/>
<path d="M147.552 129.135L146.23 139.996L144.1 139.637L144.642 135.182L140.462 134.472L139.92 138.926L137.79 138.566L139.113 127.705L141.243 128.065L140.721 132.348L144.901 133.058L145.423 128.775L147.552 129.135Z" fill="#0B1D51"/>
<rect x="34.8359" y="47.2988" width="56.8929" height="5.55878" rx="2" transform="rotate(-44.7922 34.8359 47.2988)" fill="#0B1D51"/>
<rect x="101.549" y="40.6039" width="41.1471" height="5.55878" rx="2" transform="rotate(-135.596 101.549 40.6039)" fill="#0B1D51"/>
<rect x="102" y="4" width="10" height="4" rx="1" transform="rotate(-180 102 4)" fill="#0B1D51"/>
<path d="M93.5 28.5V4V3.5L100.5 3V35L93.5 28.5Z" fill="#0B1D51"/>
<path d="M79.5002 86.5C78 79.5 79.9559 68.625 87.5 61.5C96.5 53 109 44.5 109 34C114 41.5 118.909 57.8637 111.5 70.5C102.237 86.2997 93.4252 92.1627 73.0002 93C52.5753 93.8373 32.4136 75.4854 36.0002 51.5C36.9412 62.4262 43.3707 74.5 46 77.5C48.6293 80.5 52.5003 83.5 58.5003 86C64.5003 88.5 69.5003 88.5 69.5003 88.5C77.5 89.5 93.9439 86.5842 100 77.5C106.122 68.3175 106.583 65.8687 106.761 64.777C104.965 68.8758 95.3536 86.5 79.5002 86.5Z" fill="#0B1D51"/>
<path d="M46.9999 69C53.9458 83.8322 69.9999 86.5 77.4999 86C75.4999 67 84.6465 61.1909 85.9999 60C88.2729 58 96.5 49.5 103 44L75.4999 17C67.1666 25.8333 55 37 48.7269 43.5C48.0325 44.2196 39.273 52.5 46.9999 69Z" fill="#0B1D51"/>
<path d="M68 47C68 45.3431 69.3431 44 71 44H74C74.5523 44 75 44.4477 75 45V50C75 50.5523 74.5523 51 74 51H69C68.4477 51 68 50.5523 68 50V47Z" fill="#DFE9F8"/>
<path d="M68 53C68 52.4477 68.4477 52 69 52H74C74.5523 52 75 52.4477 75 53V58C75 58.5523 74.5523 59 74 59H71C69.3431 59 68 57.6569 68 56V53Z" fill="#DFE9F8"/>
<path d="M76 53C76 52.4477 76.4477 52 77 52H82C82.5523 52 83 52.4477 83 53V56C83 57.6569 81.6569 59 80 59H77C76.4477 59 76 58.5523 76 58V53Z" fill="#DFE9F8"/>
<path d="M76 45C76 44.4477 76.4477 44 77 44H80C81.6569 44 83 45.3431 83 47V50C83 50.5523 82.5523 51 82 51H77C76.4477 51 76 50.5523 76 50V45Z" fill="#DFE9F8"/>
<path d="M104.001 42.9996L82.4997 22.0005L86.9995 18.5003L107 38C107 38 107 39.4994 105.501 41.4995C104.001 43.4996 104.001 42.9996 104.001 42.9996Z" fill="#0B1D51"/>
</svg>
