<?xml version="1.0" standalone="no"?>
<!DOCTYPE svg PUBLIC "-//W3C//DTD SVG 20010904//EN"
 "http://www.w3.org/TR/2001/REC-SVG-20010904/DTD/svg10.dtd">
<svg version="1.0" xmlns="http://www.w3.org/2000/svg"
 width="510.000000pt" height="580.000000pt" viewBox="0 0 510.000000 580.000000"
 preserveAspectRatio="xMidYMid meet">

<g transform="translate(0.000000,580.000000) scale(0.100000,-0.100000)"
fill="#000000" stroke="none">
<path d="M3596 5778 c-38 -59 -28 -129 27 -194 l26 -31 3 -486 c2 -268 0 -487
-4 -487 -3 0 -18 15 -33 33 -72 85 -1058 1069 -1080 1077 -41 15 -97 12 -130
-8 -42 -26 -664 -658 -1420 -1442 -72 -74 -297 -305 -500 -514 -204 -208 -378
-390 -387 -405 -22 -32 -23 -83 -3 -126 20 -40 192 -211 227 -224 29 -11 90 0
115 21 16 12 139 138 504 513 85 88 249 257 365 375 115 118 272 280 349 360
182 189 440 454 639 658 194 198 187 196 290 90 39 -40 174 -179 301 -308 411
-421 547 -561 810 -835 385 -401 628 -655 665 -698 31 -35 34 -37 51 -21 35
32 214 354 232 419 5 16 -40 68 -218 250 l-224 230 -1 766 0 766 25 27 c58 63
69 130 30 190 l-17 26 -314 0 -314 0 -14 -22z"/>
<path d="M2345 4768 c-71 -73 -204 -210 -295 -303 -253 -261 -1002 -1027
-1216 -1245 -164 -166 -193 -201 -201 -235 -4 -22 -8 -213 -8 -425 0 -349 3
-398 23 -526 109 -691 467 -1202 1037 -1481 295 -144 640 -212 955 -187 l115
9 7 163 c15 362 74 610 218 910 149 309 314 516 767 962 232 229 583 590 583
600 -1 11 -1840 1890 -1850 1890 -4 0 -64 -60 -135 -132z m403 -1437 c15 -10
49 -55 75 -100 l48 -81 59 30 c33 17 62 30 65 30 3 0 -18 -37 -47 -82 -28 -46
-71 -117 -95 -159 l-43 -76 -153 -6 c-90 -3 -156 -2 -161 4 -6 5 2 21 22 42
18 18 32 39 32 46 0 26 -135 258 -173 298 -23 24 -57 48 -76 55 l-36 13 60 5
c33 3 136 4 228 3 148 -2 171 -5 195 -22z m-453 -40 c63 -28 125 -113 125
-170 0 -15 -145 -269 -164 -289 -5 -5 -271 158 -274 168 -5 15 149 269 176
290 31 25 84 25 137 1z m732 -418 c4 -10 36 -67 71 -128 82 -141 84 -145 71
-205 -18 -83 -113 -145 -214 -138 l-49 3 -88 155 c-77 134 -87 156 -73 165 9
6 69 44 133 87 64 42 123 77 130 77 7 1 16 -7 19 -16z m-883 -204 c48 -83 85
-154 82 -156 -2 -2 -26 3 -53 13 -27 10 -56 15 -64 12 -12 -5 -77 -104 -146
-225 -16 -27 -27 -67 -31 -110 l-7 -68 -38 59 c-21 32 -70 114 -109 182 -81
143 -81 134 -8 264 28 48 50 92 50 98 0 5 -29 22 -65 37 -36 16 -65 31 -65 36
0 4 83 8 184 9 l183 1 87 -152z m556 -264 l0 -40 166 1 c163 2 168 3 227 33
34 16 62 29 63 28 4 -5 -197 -346 -221 -374 l-27 -33 -104 0 -104 0 0 -75 c0
-41 -4 -75 -8 -75 -12 0 -182 300 -182 320 0 19 122 225 153 258 26 27 37 15
37 -43z m-313 -222 l3 -163 -150 0 c-170 0 -203 8 -241 61 -20 29 -24 46 -24
111 0 62 4 82 21 105 37 49 55 53 229 50 l160 -2 2 -162z"/>
<path d="M4790 3732 c-76 -293 -226 -584 -431 -837 -112 -138 -138 -166 -499
-525 -185 -184 -369 -373 -409 -418 -145 -167 -303 -397 -384 -558 -130 -259
-207 -592 -207 -891 0 -62 3 -113 8 -113 4 0 52 11 107 25 334 81 655 272 925
551 154 158 261 299 409 537 112 180 291 528 291 566 0 6 5 11 10 11 12 0 13
8 -6 -91 -83 -447 -342 -911 -668 -1201 -313 -278 -710 -458 -1126 -512 -158
-21 -452 -21 -607 -1 -442 58 -810 218 -1172 510 -395 317 -712 781 -876 1281
-56 171 -104 432 -106 582 -1 65 -1 66 -11 27 -6 -24 -8 -121 -4 -240 12 -439
96 -781 282 -1146 112 -220 232 -385 419 -578 138 -142 228 -217 389 -326 262
-177 556 -298 880 -365 89 -18 136 -20 495 -20 458 0 471 1 771 87 339 96 792
385 1074 684 306 324 537 722 652 1123 146 507 131 1086 -41 1600 -37 112
-122 313 -135 321 -4 2 -17 -35 -30 -83z"/>
</g>
</svg>
